<svg width="58" height="56" viewBox="0 0 58 56" fill="none" xmlns="http://www.w3.org/2000/svg">
<g id="insta">
<ellipse id="Ellipse 19" cx="28.75" cy="27.7047" rx="28.5" ry="27.5" fill="#A7A7A7" fill-opacity="0.3"/>
<g id="&#240;&#159;&#166;&#134; icon &#34;Instagram&#34;">
<path id="Vector" d="M28.7541 17.9748C23.5044 17.9748 19.2699 22.0957 19.2699 27.2047C19.2699 32.3137 23.5044 36.4347 28.7541 36.4347C34.0039 36.4347 38.2383 32.3137 38.2383 27.2047C38.2383 22.0957 34.0039 17.9748 28.7541 17.9748ZM28.7541 33.2054C25.3616 33.2054 22.5881 30.5143 22.5881 27.2047C22.5881 23.8951 25.3533 21.204 28.7541 21.204C32.1549 21.204 34.9201 23.8951 34.9201 27.2047C34.9201 30.5143 32.1467 33.2054 28.7541 33.2054ZM40.8385 17.5972C40.8385 18.7941 39.8479 19.7501 38.6263 19.7501C37.3964 19.7501 36.4141 18.7861 36.4141 17.5972C36.4141 16.4083 37.4047 15.4444 38.6263 15.4444C39.8479 15.4444 40.8385 16.4083 40.8385 17.5972ZM47.12 19.7822C46.9797 16.8983 46.3028 14.3438 44.1319 12.2392C41.9693 10.1345 39.3444 9.47583 36.3811 9.33123C33.327 9.16254 24.173 9.16254 21.1189 9.33123C18.1638 9.46779 15.539 10.1265 13.3681 12.2312C11.1972 14.3358 10.5286 16.8903 10.38 19.7742C10.2067 22.7464 10.2067 31.655 10.38 34.6272C10.5203 37.5111 11.1972 40.0656 13.3681 42.1702C15.539 44.2749 18.1556 44.9336 21.1189 45.0782C24.173 45.2469 33.327 45.2469 36.3811 45.0782C39.3444 44.9416 41.9693 44.2829 44.1319 42.1702C46.2946 40.0656 46.9714 37.5111 47.12 34.6272C47.2933 31.655 47.2933 22.7544 47.12 19.7822ZM43.1744 37.8163C42.5306 39.3908 41.2842 40.6038 39.6581 41.2384C37.2231 42.1783 31.445 41.9614 28.7541 41.9614C26.0632 41.9614 20.2769 42.1702 17.8502 41.2384C16.2323 40.6118 14.9859 39.3988 14.3338 37.8163C13.3681 35.4466 13.5909 29.8235 13.5909 27.2047C13.5909 24.5859 13.3763 18.9548 14.3338 16.5931C14.9777 15.0186 16.2241 13.8056 17.8502 13.171C20.2852 12.2312 26.0632 12.448 28.7541 12.448C31.445 12.448 37.2313 12.2392 39.6581 13.171C41.2759 13.7976 42.5223 15.0106 43.1744 16.5931C44.1402 18.9628 43.9173 24.5859 43.9173 27.2047C43.9173 29.8235 44.1402 35.4546 43.1744 37.8163Z" fill="white"/>
</g>
</g>
</svg>
