<svg width="40" height="32" viewBox="0 0 40 32" fill="none" xmlns="http://www.w3.org/2000/svg">
<g id="&#240;&#159;&#166;&#134; icon &#34;Envelope&#34;">
<path id="Vector" d="M35.5938 0.913452H3.90625C1.88693 0.913452 0.25 2.64832 0.25 4.78845V28.0385C0.25 30.1786 1.88693 31.9135 3.90625 31.9135H35.5938C37.6131 31.9135 39.25 30.1786 39.25 28.0385V4.78845C39.25 2.64832 37.6131 0.913452 35.5938 0.913452ZM35.5938 4.78845V8.0826C33.8858 9.55664 31.163 11.8487 25.342 16.6795C24.0592 17.7489 21.5181 20.3181 19.75 20.2881C17.9822 20.3184 15.4403 17.7485 14.158 16.6795C8.33793 11.8494 5.6144 9.55688 3.90625 8.0826V4.78845H35.5938ZM3.90625 28.0385V13.055C5.65165 14.5283 8.12686 16.5959 11.8996 19.7269C13.5645 21.1158 16.4801 24.182 19.75 24.1634C23.0038 24.182 25.8825 21.1603 27.5997 19.7275C31.3724 16.5966 33.8483 14.5285 35.5938 13.055V28.0385H3.90625Z" fill="white"/>
</g>
</svg>
