<svg width="58" height="56" viewBox="0 0 58 56" fill="none" xmlns="http://www.w3.org/2000/svg">
<g id="youtube">
<ellipse id="Ellipse 20" cx="28.75" cy="27.7047" rx="28.5" ry="27.5" fill="#A7A7A7" fill-opacity="0.3"/>
<g id="&#240;&#159;&#166;&#134; icon &#34;YouTube&#34;">
<path id="Vector" d="M48.3933 17.0552C47.9217 15.1459 46.5324 13.6423 44.7684 13.132C41.5711 12.2047 28.75 12.2047 28.75 12.2047C28.75 12.2047 15.929 12.2047 12.7316 13.132C10.9676 13.6423 9.57827 15.1459 9.10673 17.0552C8.25 20.5158 8.25 27.736 8.25 27.736C8.25 27.736 8.25 34.9563 9.10673 38.4169C9.57827 40.3262 10.9676 41.7672 12.7316 42.2775C15.929 43.2047 28.75 43.2047 28.75 43.2047C28.75 43.2047 41.571 43.2047 44.7684 42.2775C46.5324 41.7672 47.9217 40.3262 48.3933 38.4169C49.25 34.9563 49.25 27.736 49.25 27.736C49.25 27.736 49.25 20.5158 48.3933 17.0552ZM24.5568 34.2915V21.1806L35.2727 27.7362L24.5568 34.2915Z" fill="white"/>
</g>
</g>
</svg>
