<svg width="26" height="24" viewBox="0 0 26 24" fill="none" xmlns="http://www.w3.org/2000/svg">
<g id="&#240;&#159;&#166;&#134; icon &#34;Alternate Phone&#34;">
<path id="Vector" d="M24.537 17.0082L19.0682 14.8015C18.8346 14.7078 18.5749 14.688 18.3283 14.7452C18.0818 14.8024 17.8616 14.9335 17.701 15.1187L15.2791 17.9047C11.4781 16.2174 8.41919 13.3374 6.62706 9.75868L9.5861 7.47841C9.78321 7.32747 9.92272 7.12017 9.98352 6.8879C10.0443 6.65564 10.0231 6.41104 9.92302 6.19115L7.57923 1.04214C7.46942 0.80511 7.2752 0.611579 7.03007 0.494923C6.78494 0.378267 6.50426 0.345798 6.23643 0.403115L1.15822 1.50647C0.899996 1.56262 0.669609 1.69951 0.50466 1.8948C0.339711 2.0901 0.249941 2.33227 0.25 2.58179C0.25 14.3739 10.4015 23.9134 22.9066 23.9134C23.1717 23.9136 23.4291 23.8291 23.6366 23.6738C23.8441 23.5185 23.9896 23.3015 24.0492 23.0583L25.2211 18.2771C25.2816 18.0237 25.2464 17.7584 25.1215 17.5268C24.9967 17.2952 24.79 17.1118 24.537 17.0082Z" fill="white"/>
</g>
</svg>
